# xmcd
#
# Track frame offsets:
#	150
#	20837
#	35820
#	53077
#	73427
#	87504
#	101351
#	117011
#	131584
#	149729
#	164228
#	180203
#	194294
#	207074
#	224933
#	242656
#	259897
#
# Disc length: 3654 seconds
#
# Revision: 2
# Processed by: cddbd v1.5PL3 Copyright (c) Steve Scherf et al.
# Submitted via: audiograbber 1.82.02
#
DISCID=110e4411
DTITLE=Various Artist - CDX 336
DYEAR=2004
DGENRE=Country
TTITLE0=Wynonna and Naomi Judd - Flies On The Butter
TTITLE1=Michael Harter - If You Never Loved Me
TTITLE2=Colt Prather - I Wont Go On And On
TTITLE3=John Michael Montgomery - Letters From Home
TTITLE4=Amy Dalley - Men Dont Change
TTITLE5=Rick Trevino - Overnight Success
TTITLE6=SheDaisy - Passenger Seat
TTITLE7=Keith Bryant - Ridin With The Legend
TTITLE8=Mavericks - The Air That I Breathe
TTITLE9=Joe Diffie - Tougher Than Nails
TTITLE10=Diamond Rio - We All Fall Down
TTITLE11=Scotty Emerick - Wheres My Beer
TTITLE12=Mitchell John - I Dont Blame Me For Loving You
TTITLE13=Blaine Larsen - In My High School
TTITLE14=Motongator Joe - Shes Got My Heart
TTITLE15=Trini Triggs - Heaven On Earth
TTITLE16=Vince Hatfield - The Hatfields And The McCoys
EXTD=
EXTT0=
EXTT1=
EXTT2=
EXTT3=
EXTT4=
EXTT5=
EXTT6=
EXTT7=
EXTT8=
EXTT9=
EXTT10=
EXTT11=
EXTT12=
EXTT13=
EXTT14=
EXTT15=
EXTT16=
PLAYORDER=
